<?xml version="1.0" encoding="iso-8859-1"?>
<!-- Generator: Adobe Illustrator 16.0.0, SVG Export Plug-In . SVG Version: 6.00 Build 0)  -->
<!DOCTYPE svg PUBLIC "-//W3C//DTD SVG 1.1//EN" "http://www.w3.org/Graphics/SVG/1.1/DTD/svg11.dtd">
<svg version="1.1" id="Layer_1" xmlns="http://www.w3.org/2000/svg" xmlns:xlink="http://www.w3.org/1999/xlink" x="0px" y="0px"
	 width="745.333px" height="484.9px" viewBox="0 0 745.333 484.9" style="enable-background:new 0 0 745.333 484.9;"
	 xml:space="preserve">
<path style="fill:#FDF944;" d="M745.333,233.521v9.54c0,0-1.89-1.51-8.53,12.25c-6.63,13.75-15.16,27.29-22.75,32.37
	c-7.58,5.08-16.11,12.97-27.49,20.87c-11.37,7.91,0,9.78-18.95,13.11c-18.96,3.33-16.12-4.5-23.7,0.84
	c-7.58,5.33-8.53,6.28-16.11,11.97c-7.59,5.68,1.75-1.9-18.09,8.53c-19.83,10.42-19.83,10.42-19.83,10.42l-1.89,2.99
	c0,0,78.67-5.55,86.25,0c7.59,5.54,8.53,10.28,17.06,9.34c8.53-0.95,27.49,3.79,27.49,3.79s14.22-2.82,16.12,5.7
	c1.89,8.51,1.89,22.1,1.89,22.1s3.79,6.04,2.84,9.02c0,0,0.95,6.78-11.37,12.47c-12.32,5.68-17.06,8.2-23.7,8.84
	c-6.63,0.63-4.74-1.58-16.11,0s-11.37-5.37-19.91,0c-8.53,5.37-2.84,3.48-20.85,11.06c-18.01,7.58-25.59,7.58-30.33,11.38
	c-4.74,3.79-13.27,7.58-13.27,7.58c-10.43,0.95-10.43,0.95-10.43,0.95l-5.68,10.42c0,0-0.95,4.74,6.63,9.48
	c7.19,4.49,5.01-0.39,7.99,6.36H76.583c-11.97-5.7-37.81-28.32-40.31-38.59c-2.78-11.37-32.16-54.02-35.01-66.35
	c-2.84-12.32,0-25.59,0-28.43c0-2.85-2.84,0,15.17,0s-2.85-9.2,31.28,4.88c34.12,14.07,44.55,10.31,64.45,18.83
	c19.91,8.51,25.59,15.15,31.28,13.25c5.69-1.89-9.75-36.08,0-52.13c9.75-16.05,8.53,0.72-14.22-26.65
	c-22.75-27.38-29.38-33.01-42.649-45.36c-13.271-12.35-22.75-15.53-0.95-16.31c21.8-0.78,27.49-1.73,10.43-19.73
	c-17.06-18.01-27.49-24.43-38.859-36.39c-11.38-11.95-28.44-29.96-32.23-34.7c-3.79-4.74-12.32-17.16,17.06-13.32
	c29.38,3.84,40.76,18.49,55.92,23.96c15.17,5.47,12.33,10.21,34.13,20.16c21.8,9.95,29.38,16.46,35.07,19.37
	c5.68,2.91-10.43-14.12-17.06-35.94c-6.64-21.82-14.22-33.19-23.7-56.89c-9.479-23.69-14.22-31.98-16.11-49.16
	c-1.9-17.19-2.85-32.03-4.74-36.46c-1.9-4.42-3.79-11.38-3.79-11.38s-11.38-16.74,5.68-14.84c17.06,1.89,39.81,14.84,39.81,14.84
	s8.53,3.49,15.17,11.38c6.63,7.9,8.53,27.1,18.96,36.46c10.42,9.35,20.85,7.42,30.33,16.92c9.48,9.49,19.9,16.13,24.64,19.92
	s16.11,12.32,16.11,12.32s3.8-3.79,0-19.9c-3.79-16.12-5.68-20.74-3.79-25.54c1.9-4.79,4.32-12.36,5.48-16.63
	c1.16-4.28-9.27-9.95,8.74,0c18.01,9.94,18.96,8.05,24.65,15.15c5.68,7.11,4.73,9.92,10.42,14.68c5.69,4.76,6.64,11.39,9.48,14.23
	c2.84,2.85,9.48,5.69,10.43,8.53c0.94,2.85,1.89-3.79,4.74-14.21c2.84-10.43,5.68-20.61,6.63-25.47c0.95-4.86,6.64-4.5,6.64-10.37
	s7.58-10.49,7.58-13.87c0-3.37,3.79-8.8,9.48-9.4c5.68-0.61,5.68-13.38,10.42,8.17c4.74,21.55,5.39,26.06,7.43,33.76
	c2.05,7.7,6.79,25.71,6.79,25.71c1.9,10.42,0,1.89,1.9,10.42c0,0,12.32,2.85,16.11,0.95c3.79-1.89,9.48-7.58,23.7-18.96
	c14.22-11.37,16.11-7.18,22.75-14.96c6.63-7.78,8.53-4.76,13.27-9.59c4.74-4.83-12.33,0.67,16.11-10.14
	c28.44-10.8,19.91-11.75,28.44-10.8c8.53,0.95,10.42,3.47,18.01,3.63c7.58,0.16,8.53,3.95,0,17.69
	c-8.54,13.75-13.27,19.44-13.27,19.44l-13.42,7.58l28.38-12.34c0,0,9.68-13.96,13.47-16.92c3.79-2.97,8.53-6.74,17.06-12.91
	c8.53-6.17,5.69-4.73,17.06-12.56c11.38-7.83,4.74-3.72,15.17-10.99c10.43-7.27,5.69-4.12,18.01-11.38
	c12.32-7.26-3.79-0.63,12.32-7.26c16.11-6.64,19.14-14.44,19.91-7.73c3.35,29.25-4.52,39-7.71,42.86
	c-3.19,3.86-12.2,24.03-12.2,31.42c0,7.38,3.65,9.28-2.92,18.76c-6.56,9.47,1.97-3.8-13.19,18.95
	c-15.17,22.75-3.79,7.59-15.17,22.75c-11.37,15.17-3.79,15.69-14.22,23.96c-10.42,8.27-10.42,22.49-18.95,26.75
	c-8.53,4.27-3.79,2.47-9.48,10c-5.69,7.54-7.58,14.51-11.38,20.98c-3.79,6.46-7.58,14.04-8.53,14.52c-0.94,0.47-0.94,0.47-0.94,0.47
	s2.84,3.54,1.89,6.99c-0.95,3.44,25.59-10.78,35.07-12.67c9.48-1.9-1.89-0.95,9.48-1.9c11.37-0.95,5.69-0.95,22.75,1.9
	c17.06,2.84,17.06,12.67,17.06,12.67s1.9,8.15-3.79,14.33c-4.91,5.33-10.97,4.88-16.43,12.39c-0.86,1.18-1.7,2.57-2.53,4.21
	c-2.86,5.7-4.42,8.71-5.84,10.56l57.84-39.41c0,0,14.35-10.02,20.04-14.75c5.69-4.74-3.79-12.94,12.32-9.31
	c16.12,3.62,35.07,0,35.07,0s-14.22-12.49,15.17-3.02C745.333,225.46,745.333,233.521,745.333,233.521z"/>
</svg>
