<?xml version="1.0" encoding="iso-8859-1"?>
<!-- Generator: Adobe Illustrator 16.0.0, SVG Export Plug-In . SVG Version: 6.00 Build 0)  -->
<!DOCTYPE svg PUBLIC "-//W3C//DTD SVG 1.1//EN" "http://www.w3.org/Graphics/SVG/1.1/DTD/svg11.dtd">
<svg version="1.1" id="Layer_1" xmlns="http://www.w3.org/2000/svg" xmlns:xlink="http://www.w3.org/1999/xlink" x="0px" y="0px"
	 width="419.823px" height="487.03px" viewBox="0 0 419.823 487.03" style="enable-background:new 0 0 419.823 487.03;"
	 xml:space="preserve">
<g>
	<path d="M419.62,487.03h-4.01c-0.41-22.64,1.26-45.39-1.11-67.95c-3.72-20.96-9.25-41.54-14.68-62.1
		c-6.31-25.26-11.71-50.77-19.55-75.62c-2.96-9.34-5.57-18.8-7.98-28.3c-0.49,0.11-1.47,0.34-1.96,0.45
		c-0.61,13.29-2.55,27.06-9.29,38.77c-6.64,12.04-11.31,25-16.68,37.62c-1.79,4.9-7.28,6.25-11.45,8.53
		c-14.57,6.4-28.77,15.41-45.22,15.6c-12.22,0.33-24.56,0.35-36.66-1.61c-8.26-2.15-15.9-6.19-23.48-10.03
		c3.5,15.93,12.3,29.9,17.36,45.29c2.94,9.35,5.9,18.72,9.25,27.94c2.59,6.81,1.59,14.29,1.46,21.39
		c-1.38,16.82-4.3,33.46-7.44,50.02h-4.4c2.92-16.08,5.97-32.19,7.28-48.5c0.1-6.71,1.18-13.64-0.64-20.2
		c-5.27-17.45-10.74-34.9-18.81-51.29c-5.44-10.14-6.25-22.32-13.64-31.47c-8.79-10.83-14.58-23.53-20.84-35.88
		c-58.39,35.74-117.4,70.48-175.8,106.2l-2.38-3.01l-0.49-0.62c0.3-0.18,0.59-0.35,0.89-0.53L0,376.51l30.05-15.68l11.44,27.64
		c51.13-30.67,102.05-61.68,153.33-92.1c-4.55-9.24-9.38-18.35-14.15-27.49c-2.73-5.43-5.56-11.02-6.12-17.17
		c-1.08-6.84-3.23-13.46-4.61-20.24c-0.7-5.74-7.7-6.46-11.49-9.41c-14.13-8.51-12.49-32.86,2.33-39.82
		c5.64-3.3,12.36-2.01,18.47-3.37c5.96-3.72,10.25-9.71,16.73-12.71c-9.63-6.53-18.58-14.32-29.48-18.74
		c-3.96-1.77-8.24-2.69-12.14-4.59c0.04-0.94,0.11-2.83,0.15-3.77c15.87-10.16,34.93-13.78,53.29-16.68
		c14.67-2.16,30.12,2.49,41.07,12.44c4.37,4.08,6.42,9.8,7.75,15.47c13.32-1.97,26.8-2.43,40.2-3.74
		c4.16-6.49,9.48-12.57,16.72-15.65c11.02-5.58,26.33-2.78,32.98,8.19c7.03,7.93,4.78,19.04,3.03,28.54
		c10.62,12.21,18.38,26.95,22.6,42.56c1.49,7.02,2.61,14.12,3.93,21.18c5.7-53.4,11.12-106.84,16.56-160.28
		c2.05-18.67,3.57-37.41,6.21-56.02c-3.43,1.17-6.94,2.21-10.37,3.33c-1.89-6.1-3.83-12.18-5.28-18.4
		c6.85,0.63,13.69,1.36,20.53,2.07c-2.22,22.09-4.42,44.18-6.81,66.25c-5.65,56.25-11.65,112.47-17.31,168.72
		c-0.6,10.26-2.7,21.01,1.01,30.98c6.24,20.51,12.35,41.08,17.02,62.01c6.68,29.72,15.94,58.87,20.99,88.95
		C420.91,441.57,419.13,464.36,419.62,487.03z"/>
	<path d="M391.7,7.07c-1.14,1.6-3.65-0.36-2.37-1.82C390.49,3.78,393.25,5.55,391.7,7.07z M398.27,10.55
		c-1.07-1.04-2.13-2.1-3.16-3.16c0.91-0.12,2.74-0.37,3.65-0.49C398.64,7.81,398.39,9.64,398.27,10.55z M322.07,132.54
		c9.73-2.22,19.95,4.52,23.48,13.52c5.88,11.99-1.88,27.99-14.79,31.15c-11.01,3.38-22.82-4.79-25.91-15.37
		C300.44,149.57,309.19,134.61,322.07,132.54z M179.1,148.65c-5.6-3.5-11.71-6.05-17.8-8.55c15.65-7.9,32.98-12.18,50.38-13.81
		c14.17-1.9,27.95,5.18,37.2,15.48c1.91,2.65,2.41,5.98,3.31,9.05c-15.64,2.19-31.48,4.65-46.11,10.86
		c-1.81,0.64-3.83,1.41-5.71,0.59C192.48,159.13,186.02,153.41,179.1,148.65z M170.65,222.95c-10.85-1.46-19.94-12.47-17.71-23.6
		c2.11-7.48,8.18-14.55,16.13-15.81c13.12-3.19,26.44,10.91,23.06,23.89C189.4,216.57,180.52,223.97,170.65,222.95z M370.84,244.02
		c-0.76-0.64-1.5-1.27-2.24-1.9c-2.92,13.59-2.87,27.85-8.03,40.91c-5.75,11.96-11.77,23.8-16.72,36.12
		c-2.7,4.94-4.05,12-10.14,13.96c-13.41,5.48-25.69,14.08-40.22,16.51c-14.29,1.05-28.77,0.7-42.91-1.7
		c-9.08-3.16-17.99-7.28-25.49-13.42c-6.14-5.79-10.31-13.21-14.61-20.37c-6.22-10.06-8.33-22.47-16.62-31.24
		c-4.15-7.25-6.73-15.34-11.46-22.32c-2.99-10.96-7.16-21.66-8.63-33.01c10.65-1.46,20.81-8.82,22.42-19.95
		c2.41-10.14-3.33-19.54-10.84-25.7c3-3.32,5.56-7.16,9.21-9.8c16.17-9.09,34.43-13.87,52.74-16.18c5.44-0.42,10.9-0.69,16.21-2.05
		c10.14-2.07,20.54-1.81,30.82-2.62c0.97,7.54,0.88,15.62,4.71,22.41c6.39,5.21,13.81,10.88,22.59,10.15
		c9.96,0.54,18.26-6.12,25.54-12.04c8.82,10.46,15.46,22.74,20.01,35.61C369.61,219.42,372,231.69,370.84,244.02z"/>
	<path d="M229.45,192.89c15.76-8.45,32.68-17.39,51.18-16.04c7.35-1.07,14.75,2.1,19.14,8.04c6.31,8.77,11.48,18.42,15.39,28.5
		c8.41,26.62,9.29,54.99,8.43,82.68c0.09,3.23-4.21,3.15-6.47,4.12c-3.45,6.59-6.62,15.22-14.34,17.9
		c-13.16,1.43-26.54,4.02-39.78,2.12c-9.43-2.59-17.56-8.24-26.36-12.31c-0.24-12.21,3.05-26.8-5.74-37.08
		c-4.75-5.25-9.93-10.14-15.24-14.81c-8.94-6.23-17.56-13.07-25.18-20.84c-3.8-8.48,1.81-16.15,7.62-21.65
		C205.9,203.04,218.98,199.75,229.45,192.89z M274.62,184.03c-2.16-0.77-4.35-1.98-6.69-1.68c-4.88,1.18-4.36,10.18,0.79,10.61
		c2.46-0.07,4.44-1.76,6.47-2.95c1.36,0.65,2.72,1.28,4.1,1.91c4.18-1.8,8.78-1.08,13.08-2.17c2.2-2.63,1.53-8.56-2.75-8.09
		c-3.77,0.61-7.56,0.7-11.24-0.54C277.11,182.07,275.86,183.04,274.62,184.03z M250.71,188.97c-5.78,0.62-11.53,3.12-15.03,7.91
		c-4.88,0.85-9.45,2.99-13.46,5.85c-3.52,2.46-0.87,8.84,3.35,8.18c7.31-1.75,11.42-9.65,19.22-10.25c3.81-1.05,6.37-4.21,9.34-6.58
		c2.58-0.84,5.41-0.88,8.09-1.36c-0.22-2.86,1-7.81-2.98-8.28C254.91,182.21,252.94,186.52,250.71,188.97z M207.93,207.36
		c-3.37,1.26-2.82,5.39-3.2,8.29c-4.1,4.07-8.08,8.47-10.87,13.55c-0.52,4.32,4.65,5.42,7.72,6.65c0.63-2.63,1.14-5.34,1.72-7.97
		c2.32-1.02,4.75-1.91,6.8-3.44c1.33-2.01,1.14-4.56,1.44-6.86c2.18-1.39,4.43-2.69,6.51-4.24c2.92-2.01,1.64-7.27-1.73-8
		C213.39,204.77,210.51,206.14,207.93,207.36z M317.88,270.15c-2.84,1.86-1.06,7.28,2.66,5.89
		C324.95,275.08,322.17,267.75,317.88,270.15z M317.88,278.15c-2.84,1.86-1.06,7.28,2.66,5.89
		C324.95,283.08,322.17,275.75,317.88,278.15z M316.1,285.48c-9.55,8-16.32,19.92-28.53,24.36c-7.48,1.9-15.67-1.16-22.83,2.34
		c11.07,2.17,22.52,2.81,33.75,1.66c7.28-1.24,10.8-8.57,13.45-14.66c1.75-4.82,7.21-5.99,11.43-7.7
		C322.33,288.44,320.2,283.36,316.1,285.48z M239.63,301.41c1.81,4.09,5.92,10.98,11.17,7.57c-0.45-2.85-1.7-5.46-2.86-8.07
		C245.86,301.04,241.71,301.29,239.63,301.41z M252.67,306.9c-0.87,1.48-1.3,3.19-1.02,4.91c3.36,2.47,8.15,0.6,11.95,1.71
		c0.04-1.68,0.1-3.36,0.16-5.04C260.15,307.51,256.41,306.88,252.67,306.9z"/>
	<path d="M161.63,200.03c1.33,0,2.66,0,4,0c0,1.33,0,2.66,0,4c-1.34,0-2.67,0-4,0C161.63,202.69,161.63,201.36,161.63,200.03z"/>
	<path style="fill:#FFFFFF;" d="M395.11,7.39c0.91-0.12,2.74-0.37,3.65-0.49c-0.12,0.91-0.37,2.74-0.49,3.65
		C397.2,9.51,396.14,8.45,395.11,7.39z"/>
	<path d="M322.07,132.54c9.73-2.22,19.95,4.52,23.48,13.52c5.88,11.99-1.88,27.99-14.79,31.15
		c-7.063,2.168-14.455-0.417-19.663-5.342c-2.91-2.752-5.139-6.235-6.247-10.028C300.44,149.57,309.19,134.61,322.07,132.54z"/>
	<path style="fill:#FFFFFF;" d="M263.51,153.88c10.14-2.07,20.54-1.81,30.82-2.62c0.97,7.54,0.88,15.62,4.71,22.41
		c6.39,5.21,13.81,10.88,22.59,10.15c9.96,0.54,18.26-6.12,25.54-12.04c8.82,10.46,15.46,22.74,20.01,35.61
		c2.43,12.03,4.82,24.3,3.66,36.63c-0.76-0.64-1.5-1.27-2.24-1.9c-2.92,13.59-2.87,27.85-8.03,40.91
		c-5.75,11.96-11.77,23.8-16.72,36.12c-2.7,4.94-4.05,12-10.14,13.96c-13.41,5.48-25.69,14.08-40.22,16.51
		c-14.29,1.05-28.77,0.7-42.91-1.7c-9.08-3.16-17.99-7.28-25.49-13.42c-6.14-5.79-10.31-13.21-14.61-20.37
		c-6.22-10.06-8.33-22.47-16.62-31.24c-4.15-7.25-6.73-15.34-11.46-22.32c-2.99-10.96-7.16-21.66-8.63-33.01
		c10.65-1.46,20.81-8.82,22.42-19.95c2.41-10.14-3.33-19.54-10.84-25.7c3-3.32,5.56-7.16,9.21-9.8
		c16.17-9.09,34.43-13.87,52.74-16.18C252.74,155.51,258.2,155.24,263.51,153.88z M229.45,192.89
		c-10.47,6.86-23.55,10.15-31.35,20.63c-5.81,5.5-11.42,13.17-7.62,21.65c7.62,7.77,16.24,14.61,25.18,20.84
		c5.31,4.67,10.49,9.56,15.24,14.81c8.79,10.28,5.5,24.87,5.74,37.08c8.8,4.07,16.93,9.72,26.36,12.31
		c13.24,1.9,26.62-0.69,39.78-2.12c7.72-2.68,10.89-11.31,14.34-17.9c2.26-0.97,6.56-0.89,6.47-4.12
		c0.86-27.69-0.02-56.06-8.43-82.68c-3.91-10.08-9.08-19.73-15.39-28.5c-4.39-5.94-11.79-9.11-19.14-8.04
		C262.13,175.5,245.21,184.44,229.45,192.89z"/>
	<path style="fill:#FFFFFF;" d="M274.62,184.03c1.24-0.99,2.49-1.96,3.76-2.91c3.68,1.24,7.47,1.15,11.24,0.54
		c4.28-0.47,4.95,5.46,2.75,8.09c-4.3,1.09-8.9,0.37-13.08,2.17c-1.38-0.63-2.74-1.26-4.1-1.91c-2.03,1.19-4.01,2.88-6.47,2.95
		c-5.15-0.43-5.67-9.43-0.79-10.61C270.27,182.05,272.46,183.26,274.62,184.03z"/>
	<path style="fill:#FFFFFF;" d="M169.07,183.54c13.12-3.19,26.44,10.91,23.06,23.89c-2.73,9.14-11.61,16.54-21.48,15.52
		c-10.85-1.46-19.94-12.47-17.71-23.6C155.05,191.87,161.12,184.8,169.07,183.54z M161.63,200.03c0,1.33,0,2.66,0,4
		c1.33,0,2.66,0,4,0c0-1.34,0-2.67,0-4C164.29,200.03,162.96,200.03,161.63,200.03z"/>
	<path style="fill:#FFFFFF;" d="M207.93,207.36c2.58-1.22,5.46-2.59,8.39-2.02c3.37,0.73,4.65,5.99,1.73,8
		c-2.08,1.55-4.33,2.85-6.51,4.24c-0.3,2.3-0.11,4.85-1.44,6.86c-2.05,1.53-4.48,2.42-6.8,3.44c-0.58,2.63-1.09,5.34-1.72,7.97
		c-3.07-1.23-8.24-2.33-7.72-6.65c2.79-5.08,6.77-9.48,10.87-13.55C205.11,212.75,204.56,208.62,207.93,207.36z"/>
	<path style="fill:#FFFFFF;" d="M317.88,270.15c4.29-2.4,7.07,4.93,2.66,5.89C316.82,277.43,315.04,272.01,317.88,270.15z"/>
	<path style="fill:#FFFFFF;" d="M317.88,278.15c4.29-2.4,7.07,4.93,2.66,5.89C316.82,285.43,315.04,280.01,317.88,278.15z"/>
	<path style="fill:#FFFFFF;" d="M316.1,285.48c4.1-2.12,6.23,2.96,7.27,6c-4.22,1.71-9.68,2.88-11.43,7.7
		c-2.65,6.09-6.17,13.42-13.45,14.66c-11.23,1.15-22.68,0.51-33.75-1.66c7.16-3.5,15.35-0.44,22.83-2.34
		C299.78,305.4,306.55,293.48,316.1,285.48z"/>
	<path style="fill:#FFFFFF;" d="M239.63,301.41c2.08-0.12,6.23-0.37,8.31-0.5c1.16,2.61,2.41,5.22,2.86,8.07
		C245.55,312.39,241.44,305.5,239.63,301.41z"/>
	<path style="fill:#FFFFFF;" d="M252.67,306.9c3.74-0.02,7.48,0.61,11.09,1.58c-0.06,1.68-0.12,3.36-0.16,5.04
		c-3.8-1.11-8.59,0.76-11.95-1.71C251.37,310.09,251.8,308.38,252.67,306.9z"/>
	<path style="fill:#FEFEFE;" d="M389.33,5.25c1.16-1.47,3.92,0.3,2.37,1.82C390.56,8.67,388.05,6.71,389.33,5.25z"/>
	<path style="fill:#FEFCB0;" d="M161.3,140.1c15.65-7.9,32.98-12.18,50.38-13.81c14.17-1.9,27.95,5.18,37.2,15.48
		c1.91,2.65,2.41,5.98,3.31,9.05c-15.64,2.19-31.48,4.65-46.11,10.86c-1.81,0.64-3.83,1.41-5.71,0.59
		c-7.89-3.14-14.35-8.86-21.27-13.62C173.5,145.15,167.39,142.6,161.3,140.1z"/>
	<path style="fill:#FDFDFD;" d="M250.71,188.97c2.23-2.45,4.2-6.76,8.53-4.53c3.98,0.47,2.76,5.42,2.98,8.28
		c-2.68,0.48-5.51,0.52-8.09,1.36c-2.97,2.37-5.53,5.53-9.34,6.58c-7.8,0.6-11.91,8.5-19.22,10.25c-4.22,0.66-6.87-5.72-3.35-8.18
		c4.01-2.86,8.58-5,13.46-5.85C239.18,192.09,244.93,189.59,250.71,188.97z"/>
	<path style="fill:#E44590;" d="M370.33,253.51c0.49-0.11,1.47-0.34,1.96-0.45c2.41,9.5,5.02,18.96,7.98,28.3
		c7.84,24.85,13.24,50.36,19.55,75.62c5.43,20.56,10.96,41.14,14.68,62.1c2.37,22.56,0.7,45.31,1.11,67.95H248.18
		c3.14-16.56,6.06-33.2,7.44-50.02c0.13-7.1,1.13-14.58-1.46-21.39c-3.35-9.22-6.31-18.59-9.25-27.94
		c-5.06-15.39-13.86-29.36-17.36-45.29c7.58,3.84,15.22,7.88,23.48,10.03c12.1,1.96,24.44,1.94,36.66,1.61
		c16.45-0.19,30.65-9.2,45.22-15.6c4.17-2.28,9.66-3.63,11.45-8.53c5.37-12.62,10.04-25.58,16.68-37.62
		C367.78,280.57,369.72,266.8,370.33,253.51z"/>
	<path d="M313.124,173.583c-2.328,2.78-6.327,38.947-44.161,72.114s-78.333,38.568-78.333,38.568l-4-8
		c0,0,53.833-13.409,74.333-36.405s45.333-67.33,45.333-67.33l5.852,0.273L313.124,173.583z"/>
</g>
</svg>
