<?xml version="1.0" encoding="iso-8859-1"?>
<!-- Generator: Adobe Illustrator 16.0.0, SVG Export Plug-In . SVG Version: 6.00 Build 0)  -->
<!DOCTYPE svg PUBLIC "-//W3C//DTD SVG 1.1//EN" "http://www.w3.org/Graphics/SVG/1.1/DTD/svg11.dtd">
<svg version="1.1" id="Layer_1" xmlns="http://www.w3.org/2000/svg" xmlns:xlink="http://www.w3.org/1999/xlink" x="0px" y="0px"
	 width="419.823px" height="487.03px" viewBox="0 0 419.823 487.03" style="enable-background:new 0 0 419.823 487.03;"
	 xml:space="preserve">
<g>
	<path d="M0.203,487.03h4.01c0.41-22.64-1.26-45.39,1.11-67.95c3.72-20.96,9.25-41.54,14.68-62.1
		c6.31-25.26,11.71-50.77,19.55-75.62c2.96-9.34,5.57-18.8,7.98-28.3c0.49,0.11,1.47,0.34,1.96,0.45
		c0.61,13.29,2.55,27.06,9.29,38.77c6.64,12.04,11.31,25,16.68,37.62c1.79,4.9,7.28,6.25,11.45,8.53
		c14.57,6.4,28.77,15.41,45.22,15.6c12.22,0.33,24.56,0.35,36.66-1.61c8.26-2.15,15.9-6.19,23.48-10.03
		c-3.5,15.93-12.3,29.9-17.36,45.29c-2.94,9.35-5.9,18.72-9.25,27.94c-2.59,6.81-1.59,14.29-1.46,21.39
		c1.38,16.82,4.3,33.46,7.44,50.02h4.4c-2.92-16.08-5.97-32.19-7.28-48.5c-0.1-6.71-1.18-13.64,0.64-20.2
		c5.27-17.45,10.74-34.9,18.81-51.29c5.44-10.14,6.25-22.32,13.64-31.47c8.79-10.83,14.58-23.53,20.84-35.88
		c58.39,35.74,117.4,70.48,175.8,106.2l2.38-3.01l0.49-0.62c-0.3-0.18-0.59-0.35-0.89-0.53l19.35-25.22l-30.05-15.68l-11.44,27.64
		c-51.13-30.67-102.05-61.68-153.33-92.1c4.55-9.24,9.38-18.35,14.15-27.49c2.73-5.43,5.56-11.02,6.12-17.17
		c1.08-6.84,3.23-13.46,4.61-20.24c0.7-5.74,7.7-6.46,11.49-9.41c14.13-8.51,12.49-32.86-2.33-39.82
		c-5.64-3.3-12.36-2.01-18.47-3.37c-5.96-3.72-10.25-9.71-16.73-12.71c9.63-6.53,18.58-14.32,29.48-18.74
		c3.96-1.77,8.24-2.69,12.14-4.59c-0.04-0.94-0.11-2.83-0.15-3.77c-15.87-10.16-34.93-13.78-53.29-16.68
		c-14.67-2.16-30.12,2.49-41.07,12.44c-4.37,4.08-6.42,9.8-7.75,15.47c-13.32-1.97-26.8-2.43-40.2-3.74
		c-4.16-6.49-9.48-12.57-16.72-15.65c-11.02-5.58-26.33-2.78-32.98,8.19c-7.03,7.93-4.78,19.04-3.03,28.54
		c-10.62,12.21-18.38,26.95-22.6,42.56c-1.49,7.02-2.61,14.12-3.93,21.18c-5.7-53.4-11.12-106.84-16.56-160.28
		c-2.05-18.67-3.57-37.41-6.21-56.02c3.43,1.17,6.94,2.21,10.37,3.33c1.89-6.1,3.83-12.18,5.28-18.4
		c-6.85,0.63-13.69,1.36-20.53,2.07c2.22,22.09,4.42,44.18,6.81,66.25c5.65,56.25,11.65,112.47,17.31,168.72
		c0.6,10.26,2.7,21.01-1.01,30.98c-6.24,20.51-12.35,41.08-17.02,62.01c-6.68,29.72-15.94,58.87-20.99,88.95
		C-1.087,441.57,0.693,464.36,0.203,487.03z"/>
	<path d="M30.493,5.25c1.28,1.46-1.23,3.42-2.37,1.82C26.573,5.55,29.333,3.78,30.493,5.25z M21.063,6.9
		c0.91,0.12,2.74,0.37,3.65,0.49c-1.03,1.06-2.09,2.12-3.16,3.16C21.433,9.64,21.183,7.81,21.063,6.9z M114.973,161.84
		c-3.09,10.58-14.9,18.75-25.91,15.37c-12.91-3.16-20.67-19.16-14.79-31.15c3.53-9,13.75-15.74,23.48-13.52
		C110.633,134.61,119.383,149.57,114.973,161.84z M219.453,162.27c-1.88,0.82-3.9,0.05-5.71-0.59
		c-14.63-6.21-30.47-8.67-46.11-10.86c0.9-3.07,1.4-6.4,3.31-9.05c9.25-10.3,23.03-17.38,37.2-15.48
		c17.4,1.63,34.73,5.91,50.38,13.81c-6.09,2.5-12.2,5.05-17.8,8.55C233.803,153.41,227.343,159.13,219.453,162.27z M227.693,207.43
		c-3.38-12.98,9.94-27.08,23.06-23.89c7.95,1.26,14.02,8.33,16.13,15.81c2.23,11.13-6.86,22.14-17.71,23.6
		C239.303,223.97,230.423,216.57,227.693,207.43z M52.643,207.39c4.55-12.87,11.19-25.15,20.01-35.61
		c7.28,5.92,15.58,12.58,25.54,12.04c8.78,0.73,16.2-4.94,22.59-10.15c3.83-6.79,3.74-14.87,4.71-22.41
		c10.28,0.81,20.68,0.55,30.82,2.62c5.31,1.36,10.77,1.63,16.21,2.05c18.31,2.31,36.57,7.09,52.74,16.18
		c3.65,2.64,6.21,6.48,9.21,9.8c-7.51,6.16-13.25,15.56-10.84,25.7c1.61,11.13,11.77,18.49,22.42,19.95
		c-1.47,11.35-5.64,22.05-8.63,33.01c-4.73,6.98-7.31,15.07-11.46,22.32c-8.29,8.77-10.4,21.18-16.62,31.24
		c-4.3,7.16-8.47,14.58-14.61,20.37c-7.5,6.14-16.41,10.26-25.49,13.42c-14.14,2.4-28.62,2.75-42.91,1.7
		c-14.53-2.43-26.81-11.03-40.22-16.51c-6.09-1.96-7.44-9.02-10.14-13.96c-4.95-12.32-10.97-24.16-16.72-36.12
		c-5.16-13.06-5.11-27.32-8.03-40.91c-0.74,0.63-1.48,1.26-2.24,1.9C47.823,231.69,50.213,219.42,52.643,207.39z"/>
	<path d="M221.723,213.52c5.81,5.5,11.42,13.17,7.62,21.65c-7.62,7.77-16.24,14.61-25.18,20.84c-5.31,4.67-10.49,9.56-15.24,14.81
		c-8.79,10.28-5.5,24.87-5.74,37.08c-8.8,4.07-16.93,9.72-26.36,12.31c-13.24,1.9-26.62-0.69-39.78-2.12
		c-7.72-2.68-10.89-11.31-14.34-17.9c-2.26-0.97-6.56-0.89-6.47-4.12c-0.86-27.69,0.02-56.06,8.43-82.68
		c3.91-10.08,9.08-19.73,15.39-28.5c4.39-5.94,11.79-9.11,19.14-8.04c18.5-1.35,35.42,7.59,51.18,16.04
		C200.843,199.75,213.923,203.04,221.723,213.52z M141.443,181.12c-3.68,1.24-7.47,1.15-11.24,0.54c-4.28-0.47-4.95,5.46-2.75,8.09
		c4.3,1.09,8.9,0.37,13.08,2.17c1.38-0.63,2.74-1.26,4.1-1.91c2.03,1.19,4.01,2.88,6.47,2.95c5.15-0.43,5.67-9.43,0.79-10.61
		c-2.34-0.3-4.53,0.91-6.69,1.68C143.963,183.04,142.713,182.07,141.443,181.12z M160.583,184.44c-3.98,0.47-2.76,5.42-2.98,8.28
		c2.68,0.48,5.51,0.52,8.09,1.36c2.97,2.37,5.53,5.53,9.34,6.58c7.8,0.6,11.91,8.5,19.22,10.25c4.22,0.66,6.87-5.72,3.35-8.18
		c-4.01-2.86-8.58-5-13.46-5.85c-3.5-4.79-9.25-7.29-15.03-7.91C166.883,186.52,164.913,182.21,160.583,184.44z M203.503,205.34
		c-3.37,0.73-4.65,5.99-1.73,8c2.08,1.55,4.33,2.85,6.51,4.24c0.3,2.3,0.11,4.85,1.44,6.86c2.05,1.53,4.48,2.42,6.8,3.44
		c0.58,2.63,1.09,5.34,1.72,7.97c3.07-1.23,8.24-2.33,7.72-6.65c-2.79-5.08-6.77-9.48-10.87-13.55c-0.38-2.9,0.17-7.03-3.2-8.29
		C209.313,206.14,206.433,204.77,203.503,205.34z M99.283,276.04c3.72,1.39,5.5-4.03,2.66-5.89
		C97.653,267.75,94.873,275.08,99.283,276.04z M99.283,284.04c3.72,1.39,5.5-4.03,2.66-5.89
		C97.653,275.75,94.873,283.08,99.283,284.04z M96.453,291.48c4.22,1.71,9.68,2.88,11.43,7.7c2.65,6.09,6.17,13.42,13.45,14.66
		c11.23,1.15,22.68,0.51,33.75-1.66c-7.16-3.5-15.35-0.44-22.83-2.34c-12.21-4.44-18.98-16.36-28.53-24.36
		C99.623,283.36,97.493,288.44,96.453,291.48z M171.883,300.91c-1.16,2.61-2.41,5.22-2.86,8.07c5.25,3.41,9.36-3.48,11.17-7.57
		C178.113,301.29,173.963,301.04,171.883,300.91z M156.063,308.48c0.06,1.68,0.12,3.36,0.16,5.04c3.8-1.11,8.59,0.76,11.95-1.71
		c0.28-1.72-0.15-3.43-1.02-4.91C163.413,306.88,159.673,307.51,156.063,308.48z"/>
	<path d="M258.193,200.03c-1.33,0-2.66,0-4,0c0,1.33,0,2.66,0,4c1.34,0,2.67,0,4,0C258.193,202.69,258.193,201.36,258.193,200.03z"
		/>
	<path style="fill:#FFFFFF;" d="M24.713,7.39c-0.91-0.12-2.74-0.37-3.65-0.49c0.12,0.91,0.37,2.74,0.49,3.65
		C22.623,9.51,23.683,8.45,24.713,7.39z"/>
	<path style="fill:#FFFFFF;" d="M172.523,155.93c18.31,2.31,36.57,7.09,52.74,16.18c3.65,2.64,6.21,6.48,9.21,9.8
		c-7.51,6.16-13.25,15.56-10.84,25.7c1.61,11.13,11.77,18.49,22.42,19.95c-1.47,11.35-5.64,22.05-8.63,33.01
		c-4.73,6.98-7.31,15.07-11.46,22.32c-8.29,8.77-10.4,21.18-16.62,31.24c-4.3,7.16-8.47,14.58-14.61,20.37
		c-7.5,6.14-16.41,10.26-25.49,13.42c-14.14,2.4-28.62,2.75-42.91,1.7c-14.53-2.43-26.81-11.03-40.22-16.51
		c-6.09-1.96-7.44-9.02-10.14-13.96c-4.95-12.32-10.97-24.16-16.72-36.12c-5.16-13.06-5.11-27.32-8.03-40.91
		c-0.74,0.63-1.48,1.26-2.24,1.9c-1.16-12.33,1.23-24.6,3.66-36.63c4.55-12.87,11.19-25.15,20.01-35.61
		c7.28,5.92,15.58,12.58,25.54,12.04c8.78,0.73,16.2-4.94,22.59-10.15c3.83-6.79,3.74-14.87,4.71-22.41
		c10.28,0.81,20.68,0.55,30.82,2.62C161.623,155.24,167.083,155.51,172.523,155.93z M139.193,176.85
		c-7.35-1.07-14.75,2.1-19.14,8.04c-6.31,8.77-11.48,18.42-15.39,28.5c-8.41,26.62-9.29,54.99-8.43,82.68
		c-0.09,3.23,4.21,3.15,6.47,4.12c3.45,6.59,6.62,15.22,14.34,17.9c13.16,1.43,26.54,4.02,39.78,2.12
		c9.43-2.59,17.56-8.24,26.36-12.31c0.24-12.21-3.05-26.8,5.74-37.08c4.75-5.25,9.93-10.14,15.24-14.81
		c8.94-6.23,17.56-13.07,25.18-20.84c3.8-8.48-1.81-16.15-7.62-21.65c-7.8-10.48-20.88-13.77-31.35-20.63
		C174.613,184.44,157.693,175.5,139.193,176.85z"/>
	<path style="fill:#FFFFFF;" d="M145.203,184.03c-1.24-0.99-2.49-1.96-3.76-2.91c-3.68,1.24-7.47,1.15-11.24,0.54
		c-4.28-0.47-4.95,5.46-2.75,8.09c4.3,1.09,8.9,0.37,13.08,2.17c1.38-0.63,2.74-1.26,4.1-1.91c2.03,1.19,4.01,2.88,6.47,2.95
		c5.15-0.43,5.67-9.43,0.79-10.61C149.553,182.05,147.363,183.26,145.203,184.03z"/>
	<path style="fill:#FFFFFF;" d="M266.883,199.35c2.23,11.13-6.86,22.14-17.71,23.6c-9.87,1.02-18.75-6.38-21.48-15.52
		c-3.38-12.98,9.94-27.08,23.06-23.89C258.703,184.8,264.773,191.87,266.883,199.35z M254.193,200.03c0,1.33,0,2.66,0,4
		c1.34,0,2.67,0,4,0c0-1.34,0-2.67,0-4C256.863,200.03,255.533,200.03,254.193,200.03z"/>
	<path style="fill:#FFFFFF;" d="M211.893,207.36c-2.58-1.22-5.46-2.59-8.39-2.02c-3.37,0.73-4.65,5.99-1.73,8
		c2.08,1.55,4.33,2.85,6.51,4.24c0.3,2.3,0.11,4.85,1.44,6.86c2.05,1.53,4.48,2.42,6.8,3.44c0.58,2.63,1.09,5.34,1.72,7.97
		c3.07-1.23,8.24-2.33,7.72-6.65c-2.79-5.08-6.77-9.48-10.87-13.55C214.713,212.75,215.263,208.62,211.893,207.36z"/>
	<path style="fill:#FFFFFF;" d="M101.943,270.15c-4.29-2.4-7.07,4.93-2.66,5.89C103.003,277.43,104.783,272.01,101.943,270.15z"/>
	<path style="fill:#FFFFFF;" d="M101.943,278.15c-4.29-2.4-7.07,4.93-2.66,5.89C103.003,285.43,104.783,280.01,101.943,278.15z"/>
	<path style="fill:#FFFFFF;" d="M103.723,285.48c-4.1-2.12-6.23,2.96-7.27,6c4.22,1.71,9.68,2.88,11.43,7.7
		c2.65,6.09,6.17,13.42,13.45,14.66c11.23,1.15,22.68,0.51,33.75-1.66c-7.16-3.5-15.35-0.44-22.83-2.34
		C120.043,305.4,113.273,293.48,103.723,285.48z"/>
	<path style="fill:#FFFFFF;" d="M180.193,301.41c-2.08-0.12-6.23-0.37-8.31-0.5c-1.16,2.61-2.41,5.22-2.86,8.07
		C174.273,312.39,178.383,305.5,180.193,301.41z"/>
	<path style="fill:#FFFFFF;" d="M167.153,306.9c-3.74-0.02-7.48,0.61-11.09,1.58c0.06,1.68,0.12,3.36,0.16,5.04
		c3.8-1.11,8.59,0.76,11.95-1.71C168.453,310.09,168.023,308.38,167.153,306.9z"/>
	<path style="fill:#FEFEFE;" d="M30.493,5.25c-1.16-1.47-3.92,0.3-2.37,1.82C29.263,8.67,31.773,6.71,30.493,5.25z"/>
	<path style="fill:#FEFCB0;" d="M258.523,140.1c-15.65-7.9-32.98-12.18-50.38-13.81c-14.17-1.9-27.95,5.18-37.2,15.48
		c-1.91,2.65-2.41,5.98-3.31,9.05c15.64,2.19,31.48,4.65,46.11,10.86c1.81,0.64,3.83,1.41,5.71,0.59
		c7.89-3.14,14.35-8.86,21.27-13.62C246.323,145.15,252.433,142.6,258.523,140.1z"/>
	<path style="fill:#FDFDFD;" d="M169.113,188.97c-2.23-2.45-4.2-6.76-8.53-4.53c-3.98,0.47-2.76,5.42-2.98,8.28
		c2.68,0.48,5.51,0.52,8.09,1.36c2.97,2.37,5.53,5.53,9.34,6.58c7.8,0.6,11.91,8.5,19.22,10.25c4.22,0.66,6.87-5.72,3.35-8.18
		c-4.01-2.86-8.58-5-13.46-5.85C180.643,192.09,174.893,189.59,169.113,188.97z"/>
	<path style="fill:#E44590;" d="M49.493,253.51c-0.49-0.11-1.47-0.34-1.96-0.45c-2.41,9.5-5.02,18.96-7.98,28.3
		c-7.84,24.85-13.24,50.36-19.55,75.62c-5.43,20.56-10.96,41.14-14.68,62.1c-2.37,22.56-0.7,45.31-1.11,67.95h167.43
		c-3.14-16.56-6.06-33.2-7.44-50.02c-0.13-7.1-1.13-14.58,1.46-21.39c3.35-9.22,6.31-18.59,9.25-27.94
		c5.06-15.39,13.86-29.36,17.36-45.29c-7.58,3.84-15.22,7.88-23.48,10.03c-12.1,1.96-24.44,1.94-36.66,1.61
		c-16.45-0.19-30.65-9.2-45.22-15.6c-4.17-2.28-9.66-3.63-11.45-8.53c-5.37-12.62-10.04-25.58-16.68-37.62
		C52.043,280.57,50.103,266.8,49.493,253.51z"/>
	<g>
		<path d="M256.158,185.002c9.265,3.71,13.835,15.067,11.618,24.477c-1.986,13.206-17.471,21.949-29.886,17.203
			c-7.042-2.235-11.65-8.566-13.131-15.58c-0.828-3.919-0.679-8.052,0.568-11.801C228.681,186.702,244.388,179.377,256.158,185.002z
			"/>
		<path d="M234.618,211.016c-4.052,1.026-31.236,32.018-89.35,37.483c-58.114,5.465-100.931-16.717-100.931-16.717l1.269-10.138
			c0,0,60.925,23.686,95.651,16.044c34.726-7.641,87.407-32.241,87.407-32.241l5.507,4.186L234.618,211.016z"/>
	</g>
	<path style="fill:#FFFFFF;" d="M91.838,130.979c16.805-4.086,33.866,13.975,29.537,30.6c-3.497,11.708-14.871,21.186-27.513,19.879
		c-13.898-1.87-25.541-15.972-22.685-30.228C73.88,141.648,81.656,132.593,91.838,130.979z M82.309,152.101c0,1.704,0,3.407,0,5.123
		c1.704,0,3.408,0,5.124,0c0-1.716,0-3.419,0-5.123C85.716,152.101,84.013,152.101,82.309,152.101z"/>
</g>
</svg>
