<?xml version="1.0" encoding="iso-8859-1"?>
<!-- Generator: Adobe Illustrator 16.0.0, SVG Export Plug-In . SVG Version: 6.00 Build 0)  -->
<!DOCTYPE svg PUBLIC "-//W3C//DTD SVG 1.1//EN" "http://www.w3.org/Graphics/SVG/1.1/DTD/svg11.dtd">
<svg version="1.1" id="Layer_1" xmlns="http://www.w3.org/2000/svg" xmlns:xlink="http://www.w3.org/1999/xlink" x="0px" y="0px"
	 width="270.996px" height="367.163px" viewBox="0 0 270.996 367.163" style="enable-background:new 0 0 270.996 367.163;"
	 xml:space="preserve">
<g>
	<path style="fill:#FFFFFF;" d="M188.263,25.113c3,0.01,6.11,0.08,9.14,0.12c-0.69,4.18-1.48,8.38-2.89,12.38
		c-0.84,2.19-1.73,4.36-2.61,6.54c-1.35,0-2.69,0-4.02,0c0.35-2.42,0.73-4.83,1.03-7.25
		C189.523,32.973,188.663,29.013,188.263,25.113z"/>
	<path style="fill:#FFFFFF;" d="M165.183,26.413c6.1-2.57,9.57,7.71,3.38,9.5C162.453,38.473,158.993,28.203,165.183,26.413z"/>
	<path style="fill:#FFFFFF;" d="M107.973,33.263c12.34-2.87,25.01-3.11,37.61-3.88c0.76,5.76,0.7,11.73,2.64,17.27
		c0.41,4.58,4.51,6.74,7.66,9.26c-14.21-0.88-28.49-1.33-42.7-0.36c-10.46,0.71-19.13,7.04-29.06,9.63
		c-11.71,2.14-18.92,12.61-26.65,20.61c-4.84,4.67-6.68,11.36-8.38,17.66c-2.46,9.22-7.12,17.93-7.18,27.68
		c-0.6,8.2,1.49,16.26,3.55,24.12c1.54-0.05,3.09-0.1,4.64-0.15c-2.23-9.42-4.91-19-3.88-28.76c1.48-6.42,4.45-12.38,6.05-18.77
		c1.93-5.72,2.65-12.35,7.15-16.82c6.41-7.14,13.21-14.18,21.3-19.39c11.9-2.89,22.08-10.78,34.56-11.64
		c18.1-1.05,36.7-1.79,54.42,2.83c6.67,2.73,11.41,8.39,17.09,12.63c5.89,4.03,10.93,9.1,16.03,14.06
		c0.02,8.64,0.04,17.27,0.07,25.92c1.33,0,2.66-0.01,4,0c-0.22-9.24,0.84-18.62-0.37-27.79c-7.61-10.84-18.98-18.58-30.43-24.94
		c8.49-2.38,15.9-7.17,22.66-12.66c7.92,10.48,14.63,21.95,19.25,34.28c4.55,14.69,2.61,30.26,0.05,45.13
		c-1.27,10.53-2,21.3-5.96,31.28c-4.87,10.72-10.59,21.07-14.93,32.03c-2.59,5.6-4.55,11.67-8.42,16.55
		c-4.52,3.15-9.97,4.71-14.82,7.28c-10.74,5.35-21.71,11.41-34.01,11.8c-12.72,0.42-25.54,0.17-38.09-2.07
		c-9.29-3.25-18.46-7.45-26-13.89c-6.64-6.65-11.2-14.97-15.85-23.04c-4.87-8.63-6.79-19-13.6-26.47
		c-4.21-5.01-5.44-11.7-8.95-17.14c-4.94-6.42-5.57-14.59-8.24-21.96c-2.11-5.77-3.08-11.84-4.17-17.85
		c10.64-1.47,20.81-8.82,22.42-19.96c2.41-10.14-3.33-19.55-10.85-25.7c3.01-3.31,5.57-7.15,9.23-9.79
		C64.763,39.663,86.433,34.692,107.973,33.263z"/>
	<path style="fill:#FFFFFF;" d="M24.183,70.422c6.99-2.81,9.48,9.83,2.58,10.69C20.503,82.653,18.493,72.042,24.183,70.422z"/>
	<path style="fill:#FFFFFF;" d="M11.853,81.383c2.7,1.76,5.28,3.69,7.95,5.49c2.12,1.4,4.31,2.69,6.48,4.01c-0.8,1-1.59,2-2.38,3.01
		c-0.66-0.25-1.97-0.77-2.62-1.02c-2.56-0.51-5.11-1.08-7.68-1.43C12.913,88.123,12.323,84.712,11.853,81.383z"/>
	<path d="M58.843,0.542c14.73-2.21,30.28,2.41,41.27,12.42c4.37,4.07,6.43,9.8,7.76,15.46c13.32-1.98,26.8-2.44,40.19-3.73
		c4.15-6.5,9.47-12.58,16.72-15.66c11.03-5.59,26.32-2.77,32.98,8.18c7.02,7.95,4.78,19.05,3.03,28.55
		c9.41,10.83,16.53,23.73,21.16,37.28c2.49,13.82,1.48,28.06,1.43,42.03c1.46,0.15,4.38,0.45,5.84,0.6
		c0.62,6.63,0.96,13.5,3.53,19.74c7.59,14.81,13.94,30.84,14.27,47.71c0.08,9.26,2.5,18.24,4.63,27.18
		c6.73,27.26,15.1,54.27,18.88,82.17c0.96,21.54,0.09,43.13,0.33,64.69h-4c-0.07-18.68,0.26-37.35-0.021-56.02
		c0.09-12.58-3.19-24.82-5.9-36.99c-4.09-18.25-9.33-36.2-13.76-54.36c-1.9,31.62,3.3,63.43-1.25,94.91
		c-1.6,15.43-1.12,30.97-1.08,46.46c-1.33-0.01-2.66-0.01-3.98,0c-0.04-19.03-0.75-38.16,1.68-57.08
		c2.84-23.24-0.12-46.62,0.38-69.92c-0.31-15.03,1.17-30.43-2.99-45.08c-4.78-19.5-11.72-38.38-16.42-57.9
		c-0.48,0.12-1.46,0.35-1.94,0.46c-0.64,12.58-2.28,25.6-8.3,36.87c-6.48,11.71-11.46,24.16-16.38,36.58
		c-1.47,3.5-3.11,7.53-7.23,8.66c-13.47,6.41-26.66,13.89-41.26,17.45c-15.02,1.9-30.34,1.44-45.34-0.49
		c-8.59-1.99-16.46-6.26-24.29-10.19c2.93,13.39,9.69,25.38,14.68,38.03c3.57,8.78,5.87,18,9.03,26.93
		c2.02,6.23,5.09,12.32,4.65,19.08c-0.16,21.1-4.05,42.02-8.42,62.6h-4.17c3.36-16.13,5.98-32.43,7.63-48.82
		c0.28-8.02,1.54-16.38-1.17-24.13c-4.04-11.93-7.05-24.28-12.5-35.68c-6.06,12.2-8.68,25.69-12.7,38.62
		c-7.03,23-12.56,46.44-17.23,70.01h-4.72c5.63-24.07,10.89-48.26,18.18-71.9c4.07-13.21,6.92-26.86,12.73-39.46
		c2.24-4.32-1.53-8.68-2.73-12.71c-4.19-8.03-5.26-17.32-9.96-25.1c-2.91-4.95-6.63-9.37-9.79-14.13
		c-4.88-6.98-7.93-14.99-11.73-22.56c-8.59-15.18-17.7-30.28-23.86-46.65c-1.38-9.8-4.76-19.16-6.28-28.94
		c-5.06-2.42-10.3-4.65-14.75-8.11c9.89,1.16,20.75,2.93,30.02-1.61c4.68-2.11,5.51-7.72,6.99-12.06
		c-7.8-1.14-15.64-0.13-22.88,2.94c-2.67-1.8-5.25-3.73-7.95-5.49c0.47,3.33,1.06,6.74,1.75,10.06c-3.42,0.67-6.79,1.53-9.99,2.91
		c-7.38-11.68-3.23-30.05,10.4-34.87c6.18-3.07,14.28,0.41,19.54-4.62c4.33-3.8,8.43-7.99,13.67-10.57
		c-9.63-6.54-18.59-14.31-29.48-18.74c-3.96-1.76-8.24-2.69-12.14-4.59c0.04-0.95,0.12-2.83,0.16-3.77
		C21.573,7.053,40.563,3.442,58.843,0.542z M12.543,18.232c8.27,3.36,16.58,6.95,23.52,12.7c5.35,3.68,10.58,8.12,16.96,9.82
		c3.84-0.16,7.23-2.32,10.82-3.49c12.84-4.26,26.22-6.51,39.6-8.32c-0.97-3.27-1.49-6.89-3.75-9.58
		c-9.32-9.95-22.82-16.83-36.77-14.93C45.513,6.042,28.203,10.343,12.543,18.232z M107.973,33.263
		c-21.54,1.43-43.21,6.4-62.16,16.99c-3.66,2.64-6.22,6.48-9.23,9.79c7.52,6.15,13.26,15.56,10.85,25.7
		c-1.61,11.14-11.78,18.49-22.42,19.96c1.09,6.01,2.06,12.08,4.17,17.85c2.67,7.37,3.3,15.54,8.24,21.96
		c3.51,5.44,4.74,12.13,8.95,17.14c6.81,7.47,8.73,17.84,13.6,26.47c4.65,8.07,9.21,16.39,15.85,23.04
		c7.54,6.44,16.71,10.64,26,13.89c12.55,2.24,25.37,2.49,38.09,2.07c12.3-0.39,23.27-6.45,34.01-11.8
		c4.85-2.57,10.3-4.13,14.82-7.28c3.87-4.88,5.83-10.95,8.42-16.55c4.34-10.96,10.06-21.31,14.93-32.03
		c3.96-9.98,4.69-20.75,5.96-31.28c2.56-14.87,4.5-30.44-0.05-45.13c-4.62-12.33-11.33-23.8-19.25-34.28
		c-6.76,5.49-14.17,10.28-22.66,12.66c11.45,6.36,22.82,14.1,30.43,24.94c1.21,9.17,0.15,18.55,0.37,27.79c-1.34-0.01-2.67,0-4,0
		c-0.03-8.65-0.05-17.28-0.07-25.92c-5.1-4.96-10.14-10.03-16.03-14.06c-5.68-4.24-10.42-9.9-17.09-12.63
		c-17.72-4.62-36.32-3.88-54.42-2.83c-12.48,0.86-22.66,8.75-34.56,11.64c-8.09,5.21-14.89,12.25-21.3,19.39
		c-4.5,4.47-5.22,11.1-7.15,16.82c-1.6,6.39-4.57,12.35-6.05,18.77c-1.03,9.76,1.65,19.34,3.88,28.76c-1.55,0.05-3.1,0.1-4.64,0.15
		c-2.06-7.86-4.15-15.92-3.55-24.12c0.06-9.75,4.72-18.46,7.18-27.68c1.7-6.3,3.54-12.99,8.38-17.66c7.73-8,14.94-18.47,26.65-20.61
		c9.93-2.59,18.6-8.92,29.06-9.63c14.21-0.97,28.49-0.52,42.7,0.36c-3.15-2.52-7.25-4.68-7.66-9.26
		c-1.94-5.54-1.88-11.51-2.64-17.27C132.983,30.153,120.313,30.393,107.973,33.263z M24.183,70.422
		c-5.69,1.62-3.68,12.23,2.58,10.69C33.663,80.252,31.173,67.613,24.183,70.422z"/>
	<path d="M31.963,88.232c0.79,0.02,2.36,0.06,3.14,0.08c-1.39,1.35-2.78,2.69-4.19,4.02C31.253,90.962,31.613,89.593,31.963,88.232z
		"/>
	<path d="M21.283,92.873c0.65,0.25,1.96,0.77,2.62,1.02C23.173,95.522,21.173,94.283,21.283,92.873z"/>
	<path style="fill:#FEFCB1;" d="M12.543,18.232c15.66-7.89,32.97-12.19,50.38-13.8c13.95-1.9,27.45,4.98,36.77,14.93
		c2.26,2.69,2.78,6.31,3.75,9.58c-13.38,1.81-26.76,4.06-39.6,8.32c-3.59,1.17-6.98,3.33-10.82,3.49
		c-6.38-1.7-11.61-6.14-16.96-9.82C29.123,25.183,20.813,21.593,12.543,18.232z"/>
	<path style="fill:#316566;" d="M170.073,43.513c5.55-3.84,12.12-6.04,18.84-6.61c-0.3,2.42-0.68,4.83-1.03,7.25
		c1.33,0,2.67,0,4.02,0c0.88-2.18,1.77-4.35,2.61-6.54c0.81,5.97-4.44,9.54-8.53,12.73c-4.9,4.27-12.18,2.72-18.09,2.81
		c-6.6-1.9-11.75-7.32-13.86-13.79C159.263,41.192,164.733,42.083,170.073,43.513z"/>
	<path style="fill:#316566;" d="M19.803,86.873c7.24-3.07,15.08-4.08,22.88-2.94c-1.48,4.34-2.31,9.95-6.99,12.06
		c-9.27,4.54-20.13,2.77-30.02,1.61c-0.52-0.81-1.54-2.43-2.06-3.25c3.2-1.38,6.57-2.24,9.99-2.91c2.57,0.35,5.12,0.92,7.68,1.43
		c-0.11,1.41,1.89,2.65,2.62,1.02c0.79-1.01,1.58-2.01,2.38-3.01C24.113,89.562,21.923,88.272,19.803,86.873z M31.963,88.232
		c-0.35,1.36-0.71,2.73-1.05,4.1c1.41-1.33,2.8-2.67,4.19-4.02C34.323,88.292,32.753,88.252,31.963,88.232z"/>
	<path style="fill:#E44691;" d="M221.583,131.643c0.48-0.11,1.46-0.34,1.94-0.46c4.7,19.52,11.64,38.4,16.42,57.9
		c4.16,14.65,2.68,30.05,2.99,45.08c-0.5,23.3,2.46,46.68-0.38,69.92c-2.43,18.92-1.72,38.05-1.68,57.08c1.32-0.01,2.65-0.01,3.98,0
		c-0.04-15.49-0.52-31.03,1.08-46.46c4.55-31.48-0.65-63.29,1.25-94.91c4.43,18.16,9.67,36.11,13.76,54.36
		c2.71,12.17,5.99,24.41,5.9,36.99c0.28,18.67-0.05,37.34,0.021,56.02H98.723c4.37-20.58,8.26-41.5,8.42-62.6
		c0.44-6.76-2.63-12.85-4.65-19.08c-3.16-8.93-5.46-18.15-9.03-26.93c-4.99-12.65-11.75-24.64-14.68-38.03
		c7.83,3.93,15.7,8.2,24.29,10.19c15,1.93,30.32,2.39,45.34,0.49c14.6-3.56,27.79-11.04,41.26-17.45c4.12-1.13,5.76-5.16,7.23-8.66
		c4.92-12.42,9.9-24.87,16.38-36.58C219.303,157.243,220.943,144.223,221.583,131.643z"/>
	<g>
		<path d="M170.118,16.453c8.896-3.415,19.481,1.383,24.052,9.208c7.201,10.26,2.055,26.136-9.719,30.864
			c-6.381,2.994-13.725,1.64-19.323-2.183c-3.128-2.137-5.712-5.044-7.279-8.394C151.999,35.224,158.224,20.17,170.118,16.453z"/>
		<path d="M171.969,47.962c-2.167,3.295-1.026,41.811-38.132,82.783c-37.106,40.973-81.494,53.327-81.494,53.327l-5.707-7.712
			c0,0,58.036-22.939,77.362-50.399c19.326-27.461,40.183-77.971,40.183-77.971l6.577-0.682L171.969,47.962z"/>
	</g>
</g>
</svg>
